<?xml version="1.0" encoding="UTF-8" standalone="no"?>

<svg
  version="1.1"
  id="svg2"
  xml:space="preserve"
  width="563.52002"
  height="491.51999"
  viewBox="0 0 563.52002 491.51999"
  sodipodi:docname="WEB.eps"
  xmlns:inkscape="http://www.inkscape.org/namespaces/inkscape"
  xmlns:sodipodi="http://sodipodi.sourceforge.net/DTD/sodipodi-0.dtd"
  xmlns="http://www.w3.org/2000/svg"
  xmlns:svg="http://www.w3.org/2000/svg"><defs
     id="defs6" /><sodipodi:namedview
     id="namedview4"
     pagecolor="#ffffff"
     bordercolor="#666666"
     borderopacity="1.0"
     inkscape:pageshadow="2"
     inkscape:pageopacity="0.0"
     inkscape:pagecheckerboard="0" /><g
     id="g8"
     inkscape:groupmode="layer"
     inkscape:label="ink_ext_XXXXXX"
     transform="matrix(1.3333333,0,0,-1.3333333,0,491.52)"><g
       id="g10"
       transform="scale(0.1)"><path
         d="m 2049.39,0.0117188 c 1015.2,0 1843.19,827.9962812 1843.19,1843.1882812 0,1015.2 -827.99,1843.21 -1843.19,1843.21 C 1034.18,3686.41 206.184,2858.4 206.184,1843.2 206.184,828.008 1034.18,0.0117188 2049.39,0.0117188"
         style="fill:#4a7fc9;fill-opacity:1;fill-rule:evenodd;stroke:none"
         id="path12" /><path
         d="m 1286.27,3218.48 c 90.41,171.75 197.97,312.68 317.95,413.75 -106.42,-26.43 -209.18,-62.12 -307.38,-106.16 -12.1,-5.43 -24.13,-10.99 -36.08,-16.68 -222.71,-105.8 -420.799,-255.02 -583.373,-436.69 155.754,-59.61 316.429,-109.42 481.343,-148.68 37.43,105.88 80.18,204.49 127.54,294.46"
         style="fill:#7ab5e5;fill-opacity:1;fill-rule:evenodd;stroke:none"
         id="path14" /><path
         d="m 2819.53,2897.38 c -34.17,94.78 -72.85,183.16 -115.41,264.03 -170.74,324.37 -402.48,525 -654.74,525 -252.25,0 -483.99,-200.63 -654.74,-525 -42.57,-80.87 -81.24,-169.25 -115.41,-264.03 10.05,-2.06 20.13,-4.08 30.21,-6.05 239.51,-46.95 486.85,-71.52 739.94,-71.52 253.1,0 500.43,24.57 739.94,71.52 10.08,1.97 20.16,3.99 30.21,6.05"
         style="fill:#7ab5e5;fill-opacity:1;fill-rule:evenodd;stroke:none"
         id="path16" /><path
         d="m 3421.37,3072.7 c -162.58,181.67 -360.66,330.89 -583.37,436.69 -10.22,4.87 -20.5,9.63 -30.83,14.31 -99.78,45.13 -204.31,81.62 -312.63,108.52 119.98,-101.06 227.53,-241.99 317.94,-413.74 47.37,-89.97 90.12,-188.58 127.54,-294.46 164.92,39.26 325.6,89.07 481.35,148.68"
         style="fill:#7ab5e5;fill-opacity:1;fill-rule:evenodd;stroke:none"
         id="path18" /><path
         d="m 3759.36,2528.4 c -64.36,160.9 -150.73,310.58 -255.37,445.33 -170.46,-67.37 -346,-123.2 -525.72,-166.59 26.81,-88.8 50.05,-181.96 69.32,-278.74 h 711.77"
         style="fill:#7ab5e5;fill-opacity:1;fill-rule:evenodd;stroke:none"
         id="path20" /><path
         d="m 2922.57,2528.4 c -18.09,87.4 -39.57,171.53 -64.09,251.8 -15.19,-3.16 -30.42,-6.24 -45.66,-9.23 -247.55,-48.52 -502.76,-73.92 -763.44,-73.92 -260.69,0 -515.9,25.4 -763.43,73.92 -15.26,2.99 -30.48,6.07 -45.67,9.23 -24.53,-80.26 -46,-164.4 -64.1,-251.8 h 1746.39"
         style="fill:#7ab5e5;fill-opacity:1;fill-rule:evenodd;stroke:none"
         id="path22" /><path
         d="m 1051.17,2528.4 c 19.28,96.78 42.5,189.94 69.32,278.74 -179.728,43.39 -355.26,99.23 -525.717,166.59 C 490.137,2838.98 403.766,2689.3 339.398,2528.4 h 711.772"
         style="fill:#7ab5e5;fill-opacity:1;fill-rule:evenodd;stroke:none"
         id="path24" /><path
         d="m 1120.49,879.27 c -26.82,88.804 -50.04,181.96 -69.32,278.74 H 339.398 C 403.77,997.109 490.133,847.422 594.773,712.676 765.23,780.039 940.766,835.879 1120.49,879.27"
         style="fill:#7ab5e5;fill-opacity:1;fill-rule:evenodd;stroke:none"
         id="path26" /><path
         d="m 2858.48,906.199 c 24.52,80.278 46,164.411 64.09,251.811 H 1176.18 c 18.1,-87.4 39.57,-171.533 64.1,-251.811 15.19,3.164 30.41,6.242 45.67,9.242 247.53,48.524 502.74,73.914 763.43,73.914 260.68,0 515.89,-25.39 763.44,-73.914 15.24,-3 30.47,-6.078 45.66,-9.242"
         style="fill:#7ab5e5;fill-opacity:1;fill-rule:evenodd;stroke:none"
         id="path28" /><path
         d="m 3503.99,712.676 c 104.64,134.746 191.01,284.433 255.37,445.334 h -711.77 c -19.27,-96.78 -42.51,-189.936 -69.32,-278.74 179.72,-43.391 355.26,-99.219 525.72,-166.594"
         style="fill:#7ab5e5;fill-opacity:1;fill-rule:evenodd;stroke:none"
         id="path30" /><path
         d="m 2704.12,525 c 42.56,80.867 81.24,169.246 115.41,264.031 -10.05,2.051 -20.13,4.074 -30.21,6.047 -239.51,46.953 -486.84,71.524 -739.94,71.524 -253.09,0 -500.43,-24.571 -739.94,-71.524 -10.08,-1.973 -20.16,-3.996 -30.21,-6.047 C 1313.4,694.246 1352.07,605.867 1394.64,525 1565.39,200.625 1797.13,0 2049.38,0 c 252.26,0 484,200.625 654.74,525"
         style="fill:#7ab5e5;fill-opacity:1;fill-rule:evenodd;stroke:none"
         id="path32" /><path
         d="M 1604.22,54.1797 C 1484.24,155.254 1376.68,296.172 1286.27,467.93 1238.91,557.898 1196.16,656.516 1158.73,762.395 993.816,723.125 833.141,673.32 677.387,613.711 839.961,432.043 1038.05,282.82 1260.76,177.012 c 11.95,-5.684 23.98,-11.239 36.08,-16.668 98.2,-44.043 200.96,-79.7307 307.38,-106.1643"
         style="fill:#7ab5e5;fill-opacity:1;fill-rule:evenodd;stroke:none"
         id="path34" /><path
         d="M 2838,177.012 C 3060.71,282.82 3258.79,432.043 3421.37,613.711 3265.62,673.32 3104.94,723.125 2940.02,762.395 2902.6,656.516 2859.85,557.898 2812.48,467.93 2722.07,296.172 2614.51,155.254 2494.54,54.1914 c 108.32,26.8945 212.85,63.3866 312.63,108.5116 10.33,4.68 20.61,9.445 30.83,14.309"
         style="fill:#7ab5e5;fill-opacity:1;fill-rule:evenodd;stroke:none"
         id="path36" /><path
         d="M 307.195,2528.41 H 3919.2 c 168.96,0 307.2,-138.24 307.2,-307.2 v -756 C 4226.4,1296.24 4088.16,1158 3919.2,1158 H 307.195 C 138.238,1158 0,1296.24 0,1465.21 v 756 c 0,168.96 138.238,307.2 307.195,307.2"
         style="fill:#548dd2;fill-opacity:1;fill-rule:evenodd;stroke:none"
         id="path38" /><path
         d="M 984.508,1768.38 884.07,2157.18 H 767.258 L 660.57,1764.5 c -21.332,-84.92 -32.968,-131.03 -34.695,-138.37 l -39.652,143.98 -106.688,387.07 H 362.074 l 205.184,-670.49 h 118.75 l 135.562,515.96 26.082,-114.44 106.68,-401.52 h 117.888 l 209.71,670.49 h -110.57 l -114.87,-387.51 -38.36,-129.52 -33.622,128.23"
         style="fill:#ffffff;fill-opacity:1;fill-rule:evenodd;stroke:none"
         id="path40" /><path
         d="M 2060.39,2157.18 1953.71,1764.5 c -21.33,-84.92 -32.97,-131.03 -34.69,-138.37 l -39.66,143.98 -106.69,387.07 h -117.46 l 205.18,-670.49 h 118.75 l 135.57,515.96 26.08,-114.44 106.67,-401.52 h 117.9 l 209.7,670.49 H 2464.5 l -114.87,-387.51 -38.36,-129.52 -33.63,128.23 -100.43,388.8 h -116.82"
         style="fill:#ffffff;fill-opacity:1;fill-rule:evenodd;stroke:none"
         id="path42" /><path
         d="M 3353.53,2157.18 3246.85,1764.5 c -21.34,-84.92 -32.98,-131.03 -34.7,-138.37 l -39.65,143.98 -106.7,387.07 h -117.44 l 205.17,-670.49 h 118.75 l 135.57,515.96 26.07,-114.44 106.69,-401.52 h 117.89 l 208.24,665.82 c -0.26,1.56 -0.53,3.12 -0.8,4.67 h -108.31 l -114.86,-387.51 -38.37,-129.52 -33.62,128.23 -100.43,388.8 h -116.82"
         style="fill:#ffffff;fill-opacity:1;fill-rule:evenodd;stroke:none"
         id="path44" /></g></g></svg>